<svg xmlns="http://www.w3.org/2000/svg" width="132.07" height="98.651" viewBox="0 0 132.07 98.651">
  <g id="Group_21" data-name="Group 21" transform="translate(-150.999 -35.137)">
    <g id="Layer_1" data-name="Layer 1" transform="translate(170.48 35.137)">
      <g id="Group_11" data-name="Group 11" transform="translate(0 0)">
        <path id="Path_20" data-name="Path 20" d="M260.308,46.426V35.7H245.6V60.948a3.72,3.72,0,1,0,4.353.034V46.518Z" transform="translate(-211.049 -35.695)" fill="#93014a" fill-rule="evenodd"/>
        <path id="Subtraction_4" data-name="Subtraction 4" d="M79.064,31.146H79.03l-3.6,0-7.191-.006-8.773-.007H58.106l-15.461-.013H38.778l-3.868,0h-.029c-.28,0-.567,0-.845.007H34c-.261,0-.586.008-.9.008a9.7,9.7,0,0,1-3.032-.356c-2.662-.9-4.136-2.935-5.561-4.9a21.235,21.235,0,0,0-2.253-2.773A8.083,8.083,0,0,0,20.887,22a6.721,6.721,0,0,0-1.684-.756,32.859,32.859,0,0,0-6.685-.46c-1.407,0-2.43.029-2.439.029l-7.067.008L3,13.5H17.309a5.733,5.733,0,0,0,2.823-.677A4.672,4.672,0,0,0,21.6,11.548c.119-.158.166-.274.136-.334-.016-.032-.053-.048-.111-.048a1.412,1.412,0,0,0-.516.168,8.707,8.707,0,0,1-3.705.876H2.992l0-1.7h.45c4.8-.021,8.045-.031,9.384-.031h.173c.385,0,.783.006,1.167.011h.032c.406.006.825.011,1.235.011a13.631,13.631,0,0,0,4.181-.488A6.946,6.946,0,0,0,22.38,8.171a23.244,23.244,0,0,0,2.143-2.72C25.832,3.61,27.185,1.707,29.337.813A12.791,12.791,0,0,1,33.429.072l.191-.01V1.87c-.037,0-.917,0-1.575.048a6.387,6.387,0,0,0-1.551.3,5.231,5.231,0,0,0-2.023,1.2c-.22.212-.426.42-.61.62-.279.3-.395.473-.365.54.01.023.036.034.079.034a3.8,3.8,0,0,0,.88-.287L28.52,4.3A7.684,7.684,0,0,1,30.4,3.9c2.146-.191,3.107-.2,3.117-.2h.1V8.645a3.771,3.771,0,0,0-.773.894,5.106,5.106,0,0,0-.773,2.778A4.333,4.333,0,0,0,33.44,15.47a4.545,4.545,0,0,0,3.1,1.269,5.071,5.071,0,0,0,3.262-1.169,4.415,4.415,0,0,0,1.522-3.47,4.456,4.456,0,0,0-.762-2.588,3.151,3.151,0,0,0-.762-.794L39.777,3.7H79.225a7.876,7.876,0,0,1,1.354.137,3.9,3.9,0,0,1,2.034.91c.416.409.736.617.952.617a.249.249,0,0,0,.2-.088,1.036,1.036,0,0,0,.094-.69c-.021-.14-.039-.275-.056-.406v0a2.615,2.615,0,0,0-.523-1.549c-.192-.2-.766-.478-2.41-.646-.987-.1-1.895-.115-1.9-.115h-39.2L39.758.009H40.1C42.881,0,46.362,0,49.9,0c6.457,0,27.707.011,30.039.156.283.018.565.032.792.043h0c1.7.085,2.937.147,3.841,1.128A5.2,5.2,0,0,1,85.4,3.759a38.114,38.114,0,0,1,.393,4.26c.152,3.223.115,6.935.086,9.919v.006c-.009.952-.018,1.851-.019,2.6q-.007.736-.014,1.472t-.014,1.473l-.005.561-.022,2.27a10.691,10.691,0,0,1-.241,1.917,4.2,4.2,0,0,1-.842,1.908C83.915,31.016,80.831,31.146,79.064,31.146ZM1.082,21.662A1.045,1.045,0,0,1,.2,21.242a1.179,1.179,0,0,1-.2-.419v-.082c0-1.662-.008-7.31.008-10.214.008,0,.015-.022.027-.057v0a.867.867,0,0,1,.947-.623,1.126,1.126,0,0,1,.867.332.861.861,0,0,1,.2.331l.075,10.313a1.127,1.127,0,0,1-.179.42A1,1,0,0,1,1.082,21.662Z" transform="translate(0 16.164)"/>
      </g>
    </g>
    <g id="Layer_2" data-name="Layer 2" transform="translate(150.999 79.851)">
      <g id="Group_13" data-name="Group 13" transform="translate(0 0)">
        <path id="Path_24" data-name="Path 24" d="M78.293,208.206l4.759-20.575c.175-.735.21-.84.7-.84h3.009c.49,0,.49.175.7.875l5.179,19.56,3.989-16.061a4.47,4.47,0,0,0,.175-.98c0-.63-.455-.7-1.89-.7-.455,0-.629-.21-.629-.63v-1.47c0-.525.035-.6.77-.6h6.963c.455,0,.56.105.56.63v1.4c0,.35-.035.665-.56.665-1.784,0-1.959.07-2.414,1.924l-5.284,20.05c-.21.77-.315.875-1.015.875H90.645c-.63,0-.735-.35-.875-.875l-4.864-18.9-4.269,18.9c-.175.77-.35.875-.875.875H76.229c-.455,0-.7-.14-.875-.84l-5.529-20.12c-.49-1.784-.7-1.89-2.169-1.89-.8,0-.91-.175-.91-.875v-1.225c0-.49.105-.6.595-.6h8.4c.49,0,.595.14.595.6v1.5c0,.385-.105.595-.525.595-1.539,0-2.029.035-2.029.7a5.345,5.345,0,0,0,.175,1.05Z" transform="translate(-66.746 -186.791)" fill="#93014a"/>
        <g id="Group_12" data-name="Group 12" transform="translate(34.368 0.061)">
          <path id="Path_25" data-name="Path 25" d="M192.1,191.723a2.286,2.286,0,0,0,2.366-2.378A2.17,2.17,0,0,0,192.389,187a2.331,2.331,0,0,0-2.3,2.509A2.009,2.009,0,0,0,192.1,191.723Z" transform="translate(-187.954 -186.998)" fill="#93014a"/>
          <path id="Path_26" data-name="Path 26" d="M213.36,224.074a6.706,6.706,0,0,1-1.225.175c-.7,0-1.05-.49-1.05-1.54v-8.748c0-4.409-2.414-6.123-5.7-6.123-2.87,0-5.284,1.155-6.263,3.709v-2.379c0-.7-.14-.98-.77-.98l-4.9.28c-.525.035-.665.175-.665.665v1.435c0,.42.14.63.595.63,1.959,0,2.239.21,2.239,1.26v10.217c0,1.295-.385,1.5-1.539,1.5h-2.942c-1.155,0-1.539-.21-1.539-1.5V209.168c0-.7-.175-.98-.8-.98l-5.109.315c-.49.035-.63.1-.63.665v1.295c0,.42.07.7.63.734l1.19.035c.7.035.98.28,1.015,1.015v10.427c0,1.295-.385,1.5-1.54,1.5h-.84c-.56,0-.63.14-.63.525v1.54c0,.49.14.63.63.63h18.2c.49,0,.665-.14.665-.63V224.7c0-.385-.105-.525-.665-.525h-.84c-1.155,0-1.54-.21-1.54-1.5v-4.2c0-4.759,1.61-7.523,4.794-7.523,2.344,0,3.254,1.47,3.254,3.569v8.958c0,2.939,1.89,3.569,3.464,3.569a6.246,6.246,0,0,0,2.449-.315.7.7,0,0,0,.49-.735v-1.575C213.78,224.074,213.64,224.039,213.36,224.074Z" transform="translate(-182.88 -201.671)" fill="#93014a"/>
        </g>
        <path id="Path_27" data-name="Path 27" d="M302.935,213.717c0,3.429-2.274,5.773-7.383,5.773a16.74,16.74,0,0,1-4.619-.665c.245,3.919,1.924,5.458,5.668,5.458a12.56,12.56,0,0,0,4.689-.875,5.393,5.393,0,0,1,1.33-.525c.28,0,.349.14.349.49v1.54c0,.49-.1.7-.7,1.015a13.979,13.979,0,0,1-5.983,1.19c-6.613,0-9.273-3.814-9.273-9.448,0-5.878,2.939-9.833,8.713-9.833C300.381,207.838,302.935,210.007,302.935,213.717Zm-12,2.554a18.015,18.015,0,0,0,4.3.63c2.729,0,4.269-1.085,4.269-3.219,0-2.1-1.33-3.184-3.779-3.184C293.1,210.5,291.283,212.212,290.933,216.271Z" transform="translate(-221.83 -201.61)" fill="#93014a"/>
        <path id="Path_28" data-name="Path 28" d="M344.494,211.2c-.455,0-.6-.21-.6-.63v-1.435c0-.49.14-.63.665-.665l5.074-.28c.63,0,.8.28.8.98v3.674c.49-1.715,2.065-5,5.879-5,2.555,0,3.6,1.4,3.6,3.394a2.255,2.255,0,0,1-2.274,2.309,2.2,2.2,0,0,1-1.959-2.974c-3.359.105-5.249,5.039-5.249,8.748v3.359c0,1.295.385,1.5,1.54,1.5h1.539c.56,0,.665.14.665.525v1.575c0,.455-.14.595-.665.595h-9.168c-.49,0-.63-.14-.63-.63V224.7c0-.42.105-.525.63-.525h.8c1.155,0,1.575-.28,1.575-1.5V212.457C346.733,211.407,346.453,211.2,344.494,211.2Z" transform="translate(-261.758 -201.61)" fill="#93014a"/>
        <path id="Path_29" data-name="Path 29" d="M402.947,231.009a2.125,2.125,0,0,1,2.134,2.24,2.318,2.318,0,0,1-1.015,1.924,4.318,4.318,0,0,0,.7.07c1.539,0,2.8-.84,3.674-3.359l.77-2.2-5.949-15.186c-.665-1.5-.77-1.679-1.889-1.679h-.455c-.525,0-.63-.315-.63-.7V210.68c0-.49.14-.595.63-.595H408.9c.49,0,.595.1.595.63v1.4c0,.35-.14.665-.595.665h-.63c-.84,0-1.19.07-1.19.49a3.6,3.6,0,0,0,.28,1.05l3.6,10.357,3.709-10.5c.385-1.19.21-1.4-1.05-1.4h-.42c-.525,0-.63-.245-.63-.63v-1.435c0-.525.14-.63.63-.63h7.173c.525,0,.63.1.63.63v1.33c0,.385-.07.734-.595.734h-.7c-.91,0-1.295.105-1.82,1.61L411.45,232.2c-1.365,3.849-3.255,4.969-6.3,4.969-2.414,0-4.374-1.4-4.374-3.814A2.161,2.161,0,0,1,402.947,231.009Z" transform="translate(-301.583 -203.192)" fill="#93014a"/>
        <path id="Path_30" data-name="Path 30" d="M137.1,281.083c5.914,0,8.328,2.974,8.328,6.893,0,2.974-1.574,5.6-6.683,10.882l-4.619,4.829h5.983c2.239,0,2.624-.14,2.974-1.539l.245-2.24c.105-.455.245-.595.77-.595h1.5c.525,0,.56.245.49.665l-.49,5.528c-.105,1.085-.385,1.155-1.19,1.155H129.826c-.525,0-.7-.14-.7-.7v-1.014c0-.735.28-1.085,1.225-2.03l5.774-6.054c4.3-4.444,5.249-6.473,5.249-8.747,0-2.415-1.155-4.2-4.234-4.2a7.1,7.1,0,0,0-3.849,1.05,2.394,2.394,0,0,1,.98,2.029,2.452,2.452,0,0,1-2.589,2.485,2.3,2.3,0,0,1-2.344-2.414C129.336,283.6,132.275,281.083,137.1,281.083Z" transform="translate(-110.666 -253.179)" fill="#93014a"/>
        <path id="Path_31" data-name="Path 31" d="M225.02,293.414v-6.928c0-1.33-.35-1.645-1.469-1.645h-.8c-.56,0-.665-.105-.665-.56v-1.469c0-.56.175-.665.665-.665h8.468c.49,0,.63.105.63.665v1.469c0,.455-.105.56-.63.56h-.84c-1.12,0-1.435.21-1.435,1.645v16.585c0,1.435.385,1.645,1.5,1.645h.77c.56,0,.665.105.665.525v1.54c0,.455-.14.63-.665.63h-8.468c-.49,0-.63-.14-.63-.63v-1.54c0-.385.1-.525.63-.525h.77c1.12,0,1.5-.315,1.5-1.645v-6.963h-11.3v6.963c0,1.435.385,1.645,1.5,1.645h.77c.595,0,.665.105.665.525v1.54c0,.455-.14.63-.665.63h-8.468c-.49,0-.63-.14-.63-.63v-1.54c0-.385.105-.525.63-.525h.77c1.12,0,1.5-.315,1.5-1.645V286.486c0-1.33-.35-1.645-1.47-1.645h-.8c-.56,0-.665-.105-.665-.56v-1.469c0-.56.175-.665.665-.665h8.468c.49,0,.63.105.63.665v1.469c0,.455-.1.56-.63.56h-.84c-1.12,0-1.435.21-1.435,1.645v6.928Z" transform="translate(-165.396 -253.928)" fill="#93014a"/>
        <path id="Path_32" data-name="Path 32" d="M300.886,303.194c6.369,0,8.888,4.374,8.888,9.727,0,5.319-2.519,9.763-8.888,9.763-6.333,0-8.818-4.444-8.818-9.763C292.068,307.568,294.552,303.194,300.886,303.194Zm-4.934,9.762c0,4.269,1.435,7.068,4.934,7.068,3.534,0,4.969-2.8,4.969-7.068,0-4.3-1.435-7.1-4.969-7.1C297.387,305.853,295.952,308.653,295.952,312.956Z" transform="translate(-225.388 -268.747)" fill="#93014a"/>
        <path id="Path_33" data-name="Path 33" d="M360.2,313.2v4.829c0,1.295.28,1.5,1.085,1.5h.735c.525,0,.63.105.63.525v1.54c0,.49-.14.63-.63.63h-7.733c-.49,0-.665-.14-.665-.63v-1.54c0-.42.105-.525.665-.525h.7c1.085,0,1.5-.28,1.5-1.5V307.813c0-1.05-.28-1.26-2.274-1.26-.455,0-.56-.21-.56-.63v-1.435c0-.49.14-.63.63-.665l5.073-.28c.665,0,.84.28.84.98v1.61c1.05-2.065,3.149-2.939,5.7-2.939,2.379,0,4.3,1.015,5.073,3.429,1.015-2.414,3.289-3.429,6.088-3.429,3.149,0,5.459,1.714,5.459,6.123v8.748c0,1.05.385,1.539,1.085,1.539a6.736,6.736,0,0,0,1.19-.175c.28-.035.42,0,.42.35v1.575a.7.7,0,0,1-.49.735,6.373,6.373,0,0,1-2.449.315c-1.61,0-3.464-.63-3.464-3.569v-8.958c0-2.1-.84-3.534-2.974-3.534-3.009,0-4.479,2.484-4.479,6.858v4.829c0,1.295.385,1.5,1.47,1.5h.77c.525,0,.63.105.63.525v1.54c0,.49-.14.63-.63.63h-7.768c-.525,0-.63-.14-.63-.63v-1.54c0-.42.07-.525.63-.525h.7c.84,0,1.12-.28,1.12-1.5v-8.153c0-2.1-.84-3.534-2.974-3.534C361.639,306.343,360.2,308.827,360.2,313.2Z" transform="translate(-268.729 -268.747)" fill="#93014a"/>
        <path id="Path_34" data-name="Path 34" d="M475.037,309.073c0,3.429-2.275,5.773-7.383,5.773a16.742,16.742,0,0,1-4.619-.665c.245,3.919,1.924,5.459,5.668,5.459a12.56,12.56,0,0,0,4.689-.875,5.411,5.411,0,0,1,1.33-.525c.28,0,.35.14.35.49v1.54c0,.49-.105.7-.7,1.015a13.978,13.978,0,0,1-5.983,1.19c-6.613,0-9.273-3.814-9.273-9.448,0-5.878,2.939-9.832,8.713-9.832C472.483,303.194,475.037,305.363,475.037,309.073Zm-12,2.554a18.019,18.019,0,0,0,4.3.63c2.729,0,4.269-1.085,4.269-3.219,0-2.1-1.33-3.184-3.779-3.184C465.2,305.853,463.385,307.568,463.035,311.627Z" transform="translate(-343.002 -268.747)" fill="#93014a"/>
      </g>
    </g>
  </g>
</svg>
