<svg xmlns="http://www.w3.org/2000/svg" xmlns:xlink="http://www.w3.org/1999/xlink" width="1920" height="1080" viewBox="0 0 1920 1080">
  <defs>
    <clipPath id="clip-Artboard_1_28">
      <rect width="1920" height="1080"/>
    </clipPath>
  </defs>
  <g id="Artboard_1_28" data-name="Artboard 1 – 28" clip-path="url(#clip-Artboard_1_28)">
    <rect width="1920" height="1080" fill="#93064a"/>
    <text id="Do_Not_Sell_My_Personal_Information._Copyright_2021._All_Rights_Reserved._Winery2Home_LLC._" data-name="Do Not Sell My Personal Information.
@Copyright 2021. All Rights Reserved. Winery2Home, LLC. " transform="translate(0 1026)" fill="#fff" font-size="12" font-family="Domine-Regular, Domine"><tspan x="852.888" y="11">Do Not Sell My Personal Information.</tspan><tspan font-size="8"><tspan x="960" y="19"></tspan></tspan><tspan font-size="10"><tspan x="819.255" y="27">@Copyright 2021. All Rights Reserved. Winery2Home, LLC. </tspan></tspan></text>
    <g id="Group_387" data-name="Group 387" transform="translate(726.138 432.343)">
      <g id="Layer_1" data-name="Layer 1" transform="translate(173.812 35.137)">
        <g id="Group_11" data-name="Group 11" transform="translate(0 0)">
          <path id="Path_20" data-name="Path 20" d="M263.091,48.261V35.7H245.868V65.267a4.356,4.356,0,1,0,5.1.039V48.368Z" transform="translate(-205.409 -35.695)" fill="#fff" fill-rule="evenodd"/>
          <path id="Subtraction_4" data-name="Subtraction 4" d="M92.584,36.472h-.04l-4.212,0-8.421-.007-10.274-.008h-1.6l-18.1-.015-1.98,0-1.984,0h-.565l-4.529,0h-.033c-.328,0-.664,0-.99.009h-.038c-.306,0-.686.009-1.049.009a11.36,11.36,0,0,1-3.551-.416C32.1,34.98,30.376,32.6,28.707,30.289a24.866,24.866,0,0,0-2.638-3.248,9.464,9.464,0,0,0-1.611-1.281,7.871,7.871,0,0,0-1.971-.885,38.478,38.478,0,0,0-7.828-.538c-1.648,0-2.845.034-2.857.034l-8.276.01-.019-8.572h16.76a6.713,6.713,0,0,0,3.306-.793,5.471,5.471,0,0,0,1.72-1.493c.14-.185.195-.32.16-.391-.018-.037-.062-.056-.13-.056a1.654,1.654,0,0,0-.6.2A10.2,10.2,0,0,1,20.382,14.3H3.5l0-2h.1l.426,0c5.621-.024,9.421-.037,10.988-.037h.2c.451,0,.916.007,1.367.013h.038c.475.006.966.013,1.446.013a15.962,15.962,0,0,0,4.9-.571,8.134,8.134,0,0,0,3.243-2.15,27.219,27.219,0,0,0,2.51-3.185C30.249,4.227,31.833,2,34.354.952A14.978,14.978,0,0,1,39.146.085L39.37.074V2.19c-.044,0-1.074,0-1.844.056a7.479,7.479,0,0,0-1.817.347A6.125,6.125,0,0,0,33.34,4c-.258.248-.5.492-.715.725-.326.352-.462.553-.428.633.012.027.042.039.093.039a4.451,4.451,0,0,0,1.03-.336l.076-.03A9,9,0,0,1,35.6,4.566c2.514-.224,3.639-.231,3.65-.231h.117v5.789a4.416,4.416,0,0,0-.905,1.047,5.979,5.979,0,0,0-.905,3.254,5.074,5.074,0,0,0,1.6,3.692A5.323,5.323,0,0,0,42.794,19.6a5.938,5.938,0,0,0,3.819-1.369A5.17,5.17,0,0,0,48.4,14.169a5.218,5.218,0,0,0-.893-3.031,3.69,3.69,0,0,0-.893-.93l-.031-5.873H92.772a9.223,9.223,0,0,1,1.586.161A4.571,4.571,0,0,1,96.74,5.561c.487.479.862.722,1.115.722a.291.291,0,0,0,.231-.1,1.213,1.213,0,0,0,.111-.808c-.025-.164-.046-.322-.066-.475v0a3.062,3.062,0,0,0-.613-1.814c-.225-.237-.9-.56-2.822-.757-1.156-.118-2.219-.134-2.229-.134h-45.9L46.556.01h.4C50.214,0,54.29,0,58.43,0c7.562,0,32.445.013,35.175.182.332.021.662.037.927.05h0c2,.1,3.439.172,4.5,1.321A6.086,6.086,0,0,1,100,4.4a44.633,44.633,0,0,1,.461,4.988c.178,3.774.135,8.121.1,11.615v.007c-.011,1.115-.021,2.168-.022,3.04q-.008.862-.017,1.724t-.017,1.725l-.006.657-.025,2.658a12.521,12.521,0,0,1-.282,2.245,4.917,4.917,0,0,1-.986,2.234C98.264,36.319,94.653,36.472,92.584,36.472ZM1.267,25.366a1.224,1.224,0,0,1-1.032-.491A1.381,1.381,0,0,1,0,24.384v-.1c0-1.946-.01-8.56.01-11.96.009,0,.018-.026.032-.067v0a1.016,1.016,0,0,1,1.109-.729,1.319,1.319,0,0,1,1.015.389,1.008,1.008,0,0,1,.229.388l.088,12.076a1.32,1.32,0,0,1-.21.492A1.165,1.165,0,0,1,1.267,25.366Z" transform="translate(0 18.928)" fill="#fff"/>
        </g>
      </g>
      <g id="Layer_2" data-name="Layer 2" transform="translate(150.999 87.497)">
        <g id="Group_13" data-name="Group 13" transform="translate(0 0)">
          <path id="Path_24" data-name="Path 24" d="M80.267,211.868l5.573-24.093c.2-.86.246-.983.82-.983h3.524c.574,0,.574.205.819,1.025l6.064,22.9,4.671-18.807a5.234,5.234,0,0,0,.205-1.147c0-.737-.533-.82-2.213-.82-.533,0-.737-.246-.737-.737v-1.721c0-.615.041-.7.9-.7h8.154c.533,0,.656.123.656.738v1.639c0,.41-.041.779-.656.779-2.09,0-2.294.082-2.827,2.254l-6.187,23.478c-.246.9-.369,1.024-1.189,1.024H94.731c-.737,0-.86-.41-1.024-1.024l-5.7-22.126-5,22.126c-.205.9-.41,1.024-1.024,1.024H77.85c-.533,0-.819-.164-1.024-.983l-6.474-23.561c-.574-2.09-.82-2.213-2.54-2.213-.943,0-1.066-.2-1.066-1.024v-1.434c0-.574.123-.7.7-.7h9.834c.574,0,.7.164.7.7v1.762c0,.451-.123.7-.615.7-1.8,0-2.377.041-2.377.82a6.26,6.26,0,0,0,.205,1.229Z" transform="translate(-66.746 -186.791)" fill="#fff"/>
          <g id="Group_12" data-name="Group 12" transform="translate(40.244 0.072)">
            <path id="Path_25" data-name="Path 25" d="M192.45,192.53a2.677,2.677,0,0,0,2.77-2.785A2.542,2.542,0,0,0,192.782,187a2.73,2.73,0,0,0-2.7,2.938A2.352,2.352,0,0,0,192.45,192.53Z" transform="translate(-187.589 -186.998)" fill="#fff"/>
            <path id="Path_26" data-name="Path 26" d="M218.572,226.85a7.845,7.845,0,0,1-1.434.2c-.82,0-1.229-.574-1.229-1.8V215.008c0-5.163-2.827-7.17-6.678-7.17-3.36,0-6.187,1.352-7.334,4.344V209.4c0-.82-.164-1.147-.9-1.147l-5.737.328c-.614.041-.778.2-.778.778v1.68c0,.492.164.737.7.737,2.294,0,2.622.246,2.622,1.475v11.964c0,1.516-.45,1.762-1.8,1.762H192.55c-1.352,0-1.8-.246-1.8-1.762V209.4c0-.82-.205-1.147-.943-1.147l-5.982.369c-.573.041-.738.123-.738.779v1.516c0,.491.082.819.738.86l1.393.041c.82.041,1.147.328,1.188,1.188v12.21c0,1.516-.451,1.762-1.8,1.762h-.983c-.656,0-.737.164-.737.614v1.8c0,.574.164.738.737.738h21.31c.574,0,.779-.164.779-.738v-1.8c0-.451-.123-.614-.779-.614h-.983c-1.353,0-1.8-.246-1.8-1.762v-4.917c0-5.572,1.885-8.809,5.613-8.809,2.745,0,3.81,1.721,3.81,4.179v10.49c0,3.442,2.213,4.179,4.057,4.179a7.315,7.315,0,0,0,2.868-.369.819.819,0,0,0,.574-.86V227.26C219.063,226.85,218.9,226.809,218.572,226.85Z" transform="translate(-182.88 -200.616)" fill="#fff"/>
          </g>
          <path id="Path_27" data-name="Path 27" d="M305.657,214.722c0,4.016-2.663,6.761-8.645,6.761a19.6,19.6,0,0,1-5.408-.778c.287,4.589,2.253,6.392,6.638,6.392a14.709,14.709,0,0,0,5.491-1.024,6.315,6.315,0,0,1,1.557-.615c.328,0,.409.164.409.574v1.8c0,.574-.123.819-.819,1.188a16.369,16.369,0,0,1-7.007,1.393c-7.744,0-10.858-4.466-10.858-11.063,0-6.884,3.442-11.514,10.2-11.514C302.666,207.838,305.657,210.378,305.657,214.722ZM291.6,217.713a21.1,21.1,0,0,0,5.039.737c3.2,0,5-1.27,5-3.77,0-2.458-1.557-3.728-4.425-3.728C294.144,210.952,292.013,212.96,291.6,217.713Z" transform="translate(-210.683 -200.544)" fill="#fff"/>
          <path id="Path_28" data-name="Path 28" d="M344.626,211.771c-.533,0-.7-.246-.7-.737v-1.68c0-.573.164-.737.779-.778l5.941-.328c.738,0,.942.328.942,1.147v4.3c.574-2.008,2.418-5.86,6.884-5.86,2.991,0,4.22,1.639,4.22,3.975a2.641,2.641,0,0,1-2.663,2.7,2.58,2.58,0,0,1-2.294-3.483c-3.934.123-6.146,5.9-6.146,10.244v3.934c0,1.516.451,1.762,1.8,1.762h1.8c.655,0,.778.164.778.614v1.844c0,.533-.164.7-.778.7H344.462c-.574,0-.738-.164-.738-.738v-1.8c0-.492.123-.614.738-.614h.942c1.352,0,1.844-.328,1.844-1.762V213.247C347.248,212.018,346.92,211.771,344.626,211.771Z" transform="translate(-247.741 -200.544)" fill="#fff"/>
          <path id="Path_29" data-name="Path 29" d="M403.4,234.587a2.489,2.489,0,0,1,2.5,2.623,2.715,2.715,0,0,1-1.188,2.254,5.053,5.053,0,0,0,.82.082c1.8,0,3.278-.983,4.3-3.934l.9-2.582-6.966-17.783c-.779-1.762-.9-1.967-2.213-1.967h-.533c-.615,0-.737-.369-.737-.82v-1.68c0-.574.164-.7.737-.7h9.342c.574,0,.7.123.7.737v1.639c0,.41-.164.778-.7.778h-.738c-.983,0-1.393.082-1.393.574a4.212,4.212,0,0,0,.328,1.229l4.22,12.128,4.344-12.292c.451-1.393.246-1.639-1.229-1.639h-.492c-.615,0-.737-.287-.737-.737v-1.68c0-.615.164-.737.737-.737h8.4c.615,0,.738.123.738.737v1.557c0,.45-.082.86-.7.86h-.82c-1.065,0-1.516.123-2.131,1.885l-7.539,20.856c-1.6,4.507-3.811,5.819-7.376,5.819-2.827,0-5.121-1.639-5.121-4.466A2.531,2.531,0,0,1,403.4,234.587Z" transform="translate(-284.704 -202.013)" fill="#fff"/>
          <path id="Path_30" data-name="Path 30" d="M138.468,281.083c6.925,0,9.752,3.483,9.752,8.072,0,3.483-1.844,6.556-7.826,12.743l-5.408,5.654h7.007c2.622,0,3.073-.164,3.483-1.8l.287-2.623c.123-.533.287-.7.9-.7h1.762c.614,0,.655.287.574.778l-.574,6.474c-.123,1.27-.451,1.353-1.393,1.353H129.946c-.614,0-.82-.164-.82-.82v-1.188c0-.861.328-1.27,1.434-2.377l6.761-7.089c5.04-5.2,6.146-7.58,6.146-10.243,0-2.828-1.353-4.917-4.958-4.917A8.31,8.31,0,0,0,134,285.631a2.8,2.8,0,0,1,1.147,2.376,2.871,2.871,0,0,1-3.032,2.909,2.69,2.69,0,0,1-2.745-2.827C129.372,284.033,132.814,281.083,138.468,281.083Z" transform="translate(-107.509 -248.408)" fill="#fff"/>
          <path id="Path_31" data-name="Path 31" d="M228.125,295.341v-8.113c0-1.557-.41-1.926-1.721-1.926h-.943c-.656,0-.778-.123-.778-.656v-1.721c0-.656.2-.779.778-.779h9.916c.573,0,.737.123.737.779v1.721c0,.533-.123.656-.737.656h-.983c-1.311,0-1.68.246-1.68,1.926v19.421c0,1.68.451,1.926,1.762,1.926h.9c.656,0,.778.123.778.615v1.8c0,.532-.164.737-.778.737h-9.916c-.573,0-.737-.164-.737-.737v-1.8c0-.451.123-.615.737-.615h.9c1.311,0,1.762-.369,1.762-1.926V298.5H214.891v8.154c0,1.68.45,1.926,1.762,1.926h.9c.7,0,.779.123.779.615v1.8c0,.532-.164.737-.779.737h-9.916c-.574,0-.737-.164-.737-.737v-1.8c0-.451.123-.615.737-.615h.9c1.311,0,1.762-.369,1.762-1.926V287.228c0-1.557-.41-1.926-1.721-1.926h-.943c-.655,0-.778-.123-.778-.656v-1.721c0-.656.2-.779.778-.779h9.916c.574,0,.737.123.737.779v1.721c0,.533-.123.656-.737.656h-.983c-1.311,0-1.68.246-1.68,1.926v8.113Z" transform="translate(-158.306 -249.103)" fill="#fff"/>
          <path id="Path_32" data-name="Path 32" d="M302.393,303.194c7.458,0,10.408,5.122,10.408,11.391,0,6.228-2.95,11.432-10.408,11.432-7.416,0-10.325-5.2-10.325-11.432C292.068,308.316,294.977,303.194,302.393,303.194Zm-5.777,11.432c0,5,1.68,8.277,5.777,8.277,4.138,0,5.819-3.278,5.819-8.277,0-5.04-1.68-8.318-5.819-8.318C298.3,306.308,296.616,309.586,296.616,314.626Z" transform="translate(-213.986 -262.856)" fill="#fff"/>
          <path id="Path_33" data-name="Path 33" d="M361.329,314.913v5.654c0,1.516.328,1.762,1.27,1.762h.861c.615,0,.737.123.737.615v1.8c0,.573-.164.737-.737.737H354.4c-.574,0-.779-.164-.779-.737v-1.8c0-.492.123-.615.779-.615h.819c1.27,0,1.762-.328,1.762-1.762V308.6c0-1.229-.328-1.475-2.663-1.475-.533,0-.656-.246-.656-.737v-1.68c0-.574.164-.737.738-.778l5.941-.328c.779,0,.984.328.984,1.147v1.885c1.229-2.418,3.688-3.442,6.679-3.442,2.786,0,5.04,1.188,5.941,4.015,1.188-2.827,3.852-4.015,7.13-4.015,3.688,0,6.392,2.008,6.392,7.17v10.244c0,1.229.45,1.8,1.27,1.8a7.884,7.884,0,0,0,1.393-.2c.328-.041.492,0,.492.41v1.844a.819.819,0,0,1-.574.86,7.464,7.464,0,0,1-2.868.368c-1.885,0-4.057-.737-4.057-4.179V311.02c0-2.458-.983-4.138-3.483-4.138-3.524,0-5.245,2.909-5.245,8.031v5.654c0,1.516.451,1.762,1.721,1.762h.9c.615,0,.737.123.737.615v1.8c0,.573-.164.737-.737.737h-9.1c-.615,0-.738-.164-.738-.737v-1.8c0-.492.082-.615.738-.615h.82c.983,0,1.311-.328,1.311-1.762V311.02c0-2.458-.983-4.138-3.483-4.138C363.009,306.882,361.329,309.791,361.329,314.913Z" transform="translate(-254.212 -262.856)" fill="#fff"/>
          <path id="Path_34" data-name="Path 34" d="M477.759,310.078c0,4.015-2.664,6.761-8.646,6.761a19.605,19.605,0,0,1-5.408-.779c.287,4.589,2.254,6.392,6.638,6.392a14.708,14.708,0,0,0,5.491-1.024,6.339,6.339,0,0,1,1.557-.615c.328,0,.41.164.41.574v1.8c0,.574-.123.82-.819,1.188a16.367,16.367,0,0,1-7.006,1.393c-7.744,0-10.858-4.466-10.858-11.063,0-6.884,3.442-11.513,10.2-11.513C474.768,303.194,477.759,305.734,477.759,310.078Zm-14.054,2.991a21.1,21.1,0,0,0,5.04.738c3.2,0,5-1.27,5-3.77,0-2.458-1.557-3.729-4.425-3.729C466.245,306.308,464.115,308.316,463.705,313.068Z" transform="translate(-323.146 -262.856)" fill="#fff"/>
        </g>
      </g>
    </g>
    <text id="_25_" data-name="25%" transform="translate(960 737.63)" fill="#fff" font-size="19" font-family="Domine-Bold, Domine" font-weight="700"><tspan x="-17.736" y="0">25%</tspan></text>
    <ellipse id="Ellipse_46" data-name="Ellipse 46" cx="9.389" cy="9.172" rx="9.389" ry="9.172" transform="translate(1101.091 512.12)" fill="#fff"/>
    <g id="Group_382" data-name="Group 382" transform="translate(795.626 366.733)">
      <g id="Ellipse_45" data-name="Ellipse 45" transform="translate(0 2.812)" fill="none" stroke="#fff" stroke-width="1" stroke-dasharray="2 2">
        <ellipse cx="156.196" cy="156.195" rx="156.196" ry="156.195" stroke="none"/>
        <ellipse cx="156.196" cy="156.195" rx="156.696" ry="156.695" fill="none"/>
      </g>
      <path id="Path_163" data-name="Path 163" d="M6100.366-2807.706c-6.257-111.472-93.271-157.2-156.653-157.2" transform="translate(-5785.512 2966.713)" fill="none" stroke="#fff" stroke-width="2"/>
    </g>
  </g>
</svg>
